<svg xmlns="http://www.w3.org/2000/svg" width="1200" height="630" viewBox="0 0 1200 630" role="img" aria-label="A blockDAG with one block marked red. The red block keeps its place, its parents and its transactions.">
<rect width="1200" height="630" fill="#100e0c"/>
<g stroke="#4a453d" stroke-width="3" fill="none">
<path d="M127 452 C200 452 200 409 273 409"/>
<path d="M127 452 C200 452 200 495 273 495"/>
<path d="M335 409 C408 409 408 366 481 366"/>
<path d="M335 409 C408 409 408 452 481 452"/>
<path d="M335 495 C408 495 408 452 481 452"/>
<path d="M335 495 C408 495 408 538 481 538"/>
<path d="M543 366 C616 366 616 409 689 409"/>
<path d="M543 452 C616 452 616 409 689 409"/>
<path d="M751 409 C824 409 824 452 897 452"/>
</g>
<g stroke="#ff6961" stroke-width="5" fill="none">
<path d="M543 538 C616 538 616 495 689 495"/>
<path d="M751 495 C824 495 824 452 897 452"/>
</g>
<rect x="65" y="430" width="62" height="44" rx="10" fill="#66d1c1"/>
<rect x="273" y="387" width="62" height="44" rx="10" fill="#66d1c1"/>
<rect x="273" y="473" width="62" height="44" rx="10" fill="#66d1c1"/>
<rect x="481" y="344" width="62" height="44" rx="10" fill="#66d1c1"/>
<rect x="481" y="430" width="62" height="44" rx="10" fill="#66d1c1"/>
<rect x="481" y="516" width="62" height="44" rx="10" fill="#66d1c1"/>
<rect x="689" y="387" width="62" height="44" rx="10" fill="#66d1c1"/>
<rect x="689" y="473" width="62" height="44" rx="10" fill="#ff6961"/>
<rect x="897" y="430" width="62" height="44" rx="10" fill="#66d1c1"/>
<g font-family="Aptos, Segoe UI, Helvetica, Arial, sans-serif">
<text x="96" y="132" fill="#f8f5ef" font-size="70" font-weight="800" letter-spacing="-.02em">Marked red.</text>
<text x="96" y="210" fill="#ff6961" font-size="70" font-weight="800" letter-spacing="-.02em">Still counted.</text>
<text x="96" y="266" fill="#b6b0a7" font-size="34" font-weight="500">A single chain would discard this block. Kaspa</text>
<text x="96" y="308" fill="#b6b0a7" font-size="34" font-weight="500">keeps it, its parents, and its transactions.</text>
<text x="1104" y="584" fill="#9d988c" font-size="28" text-anchor="end">kaspaexplained.com</text>
</g>
</svg>
