<svg xmlns="http://www.w3.org/2000/svg" width="1200" height="630" viewBox="0 0 1200 630" role="img" aria-label="Kaspa Explained preview image">
  <defs>
    <linearGradient id="bg" x1="0" y1="0" x2="1" y2="1">
      <stop offset="0" stop-color="#07100d"/>
      <stop offset=".56" stop-color="#101615"/>
      <stop offset="1" stop-color="#0b0c0b"/>
    </linearGradient>
    <radialGradient id="glow" cx="50%" cy="50%" r="50%">
      <stop offset="0" stop-color="#70c7ba" stop-opacity=".34"/>
      <stop offset="1" stop-color="#70c7ba" stop-opacity="0"/>
    </radialGradient>
  </defs>
  <rect width="1200" height="630" fill="url(#bg)"/>
  <circle cx="245" cy="316" r="260" fill="url(#glow)"/>
  <g opacity=".22" fill="none" stroke="#70c7ba" stroke-width="3">
    <path d="M744 126h248l90 88v226l-96 70H742l-96-72V210z"/>
    <path d="M646 210l160 72 176-68 100 100-96 126-180-62-160 60"/>
    <path d="M806 282v96M982 214v226"/>
  </g>
  <g>
    <rect x="96" y="128" width="292" height="292" rx="54" fill="#07100d" stroke="#70c7ba" stroke-width="8"/>
    <path d="M177 191v166M294 191 204 274l90 83" fill="none" stroke="#f3fffb" stroke-width="34" stroke-linecap="round" stroke-linejoin="round"/>
    <path d="M292 191 204 274l88 83" fill="none" stroke="#70c7ba" stroke-width="12" stroke-linecap="round" stroke-linejoin="round"/>
  </g>
  <text x="450" y="190" fill="#f3fffb" font-family="Inter, Arial, sans-serif" font-size="76" font-weight="850">Kaspa Explained</text>
  <text x="454" y="260" fill="#d8e5e1" font-family="Inter, Arial, sans-serif" font-size="36" font-weight="650">Proof-of-work blockDAG guide</text>
  <text x="454" y="348" fill="#9fb3ae" font-family="Inter, Arial, sans-serif" font-size="29">Live status, sources, builders, and roadmap boundaries.</text>
  <g fill="#70c7ba" font-family="Inter, Arial, sans-serif" font-size="25" font-weight="800">
    <text x="454" y="456">LIVE VS ROADMAP</text>
    <text x="708" y="456">SOURCES</text>
    <text x="856" y="456">BUILDERS</text>
  </g>
  <text x="98" y="548" fill="#7f928e" font-family="Inter, Arial, sans-serif" font-size="24">kaspaexplained.com</text>
</svg>
